<mxfile host="Electron" agent="Mozilla/5.0 (Windows NT 10.0; Win64; x64) AppleWebKit/537.36 (KHTML, like Gecko) draw.io/28.1.2 Chrome/138.0.7204.243 Electron/37.4.0 Safari/537.36" version="28.1.2">
  <diagram name="Halaman-1" id="3PIHIDu9w81w8OoM0Zr5">
    <mxGraphModel dx="1938" dy="1358" grid="1" gridSize="10" guides="1" tooltips="1" connect="1" arrows="1" fold="1" page="1" pageScale="1" pageWidth="850" pageHeight="1100" math="0" shadow="0">
      <root>
        <mxCell id="0" />
        <mxCell id="1" parent="0" />
        <mxCell id="vmad4Tgxf-zBpkZuK3b--5" style="edgeStyle=orthogonalEdgeStyle;rounded=0;orthogonalLoop=1;jettySize=auto;html=1;exitX=0.5;exitY=1;exitDx=0;exitDy=0;entryX=0.5;entryY=0;entryDx=0;entryDy=0;" parent="1" source="vmad4Tgxf-zBpkZuK3b--1" target="vmad4Tgxf-zBpkZuK3b--2" edge="1">
          <mxGeometry relative="1" as="geometry" />
        </mxCell>
        <mxCell id="vmad4Tgxf-zBpkZuK3b--1" value="&lt;font face=&quot;Times New Roman&quot;&gt;START&lt;/font&gt;" style="ellipse;whiteSpace=wrap;html=1;fillColor=#ffcd28;strokeColor=#d79b00;gradientColor=#ffa500;" parent="1" vertex="1">
          <mxGeometry x="340" width="120" height="80" as="geometry" />
        </mxCell>
        <mxCell id="vmad4Tgxf-zBpkZuK3b--6" style="edgeStyle=orthogonalEdgeStyle;rounded=0;orthogonalLoop=1;jettySize=auto;html=1;exitX=0.5;exitY=1;exitDx=0;exitDy=0;entryX=0.5;entryY=0;entryDx=0;entryDy=0;" parent="1" source="vmad4Tgxf-zBpkZuK3b--2" target="vmad4Tgxf-zBpkZuK3b--3" edge="1">
          <mxGeometry relative="1" as="geometry" />
        </mxCell>
        <mxCell id="vmad4Tgxf-zBpkZuK3b--2" value="&lt;font face=&quot;Times New Roman&quot;&gt;Masukkan nama &amp;amp; nim anda !&lt;/font&gt;" style="shape=parallelogram;perimeter=parallelogramPerimeter;whiteSpace=wrap;html=1;fixedSize=1;fillColor=#a0522d;strokeColor=#6D1F00;fontColor=#ffffff;" parent="1" vertex="1">
          <mxGeometry x="315" y="100" width="170" height="50" as="geometry" />
        </mxCell>
        <mxCell id="vmad4Tgxf-zBpkZuK3b--15" value="false" style="edgeStyle=orthogonalEdgeStyle;rounded=0;orthogonalLoop=1;jettySize=auto;html=1;exitX=0;exitY=0.5;exitDx=0;exitDy=0;entryX=1;entryY=0.5;entryDx=0;entryDy=0;" parent="1" source="vmad4Tgxf-zBpkZuK3b--3" target="vmad4Tgxf-zBpkZuK3b--9" edge="1">
          <mxGeometry relative="1" as="geometry" />
        </mxCell>
        <mxCell id="vmad4Tgxf-zBpkZuK3b--16" value="true" style="edgeStyle=orthogonalEdgeStyle;rounded=0;orthogonalLoop=1;jettySize=auto;html=1;exitX=1;exitY=0.5;exitDx=0;exitDy=0;" parent="1" source="vmad4Tgxf-zBpkZuK3b--3" target="vmad4Tgxf-zBpkZuK3b--7" edge="1">
          <mxGeometry relative="1" as="geometry" />
        </mxCell>
        <mxCell id="vmad4Tgxf-zBpkZuK3b--3" value="&lt;font face=&quot;Times New Roman&quot;&gt;nama == Nuril Akmal &amp;amp; nim = 2509106074&lt;/font&gt;" style="rhombus;whiteSpace=wrap;html=1;fillColor=#a20025;fontColor=#ffffff;strokeColor=#6F0000;" parent="1" vertex="1">
          <mxGeometry x="335" y="170" width="130" height="110" as="geometry" />
        </mxCell>
        <mxCell id="vmad4Tgxf-zBpkZuK3b--33" style="edgeStyle=orthogonalEdgeStyle;rounded=0;orthogonalLoop=1;jettySize=auto;html=1;exitX=0.5;exitY=1;exitDx=0;exitDy=0;entryX=0.5;entryY=0;entryDx=0;entryDy=0;" parent="1" source="vmad4Tgxf-zBpkZuK3b--7" target="vmad4Tgxf-zBpkZuK3b--31" edge="1">
          <mxGeometry relative="1" as="geometry" />
        </mxCell>
        <mxCell id="vmad4Tgxf-zBpkZuK3b--7" value="&lt;font face=&quot;Times New Roman&quot;&gt;Selamat login berhasil, Selamat datang&lt;/font&gt;" style="shape=parallelogram;perimeter=parallelogramPerimeter;whiteSpace=wrap;html=1;fixedSize=1;fillColor=#a0522d;fontColor=#ffffff;strokeColor=#6D1F00;" parent="1" vertex="1">
          <mxGeometry x="497" y="195" width="120" height="60" as="geometry" />
        </mxCell>
        <mxCell id="vmad4Tgxf-zBpkZuK3b--24" style="edgeStyle=orthogonalEdgeStyle;rounded=0;orthogonalLoop=1;jettySize=auto;html=1;exitX=0;exitY=0.5;exitDx=0;exitDy=0;entryX=0.5;entryY=0;entryDx=0;entryDy=0;" parent="1" source="vmad4Tgxf-zBpkZuK3b--9" target="vmad4Tgxf-zBpkZuK3b--10" edge="1">
          <mxGeometry relative="1" as="geometry">
            <mxPoint x="90" y="225" as="targetPoint" />
          </mxGeometry>
        </mxCell>
        <mxCell id="vmad4Tgxf-zBpkZuK3b--9" value="&lt;font face=&quot;Times New Roman&quot;&gt;nama atau nim salah sisa percoban sisa 2 lagi&lt;/font&gt;" style="rhombus;whiteSpace=wrap;html=1;shadow=0;fillColor=#a20025;fontColor=#ffffff;strokeColor=#6F0000;" parent="1" vertex="1">
          <mxGeometry x="160" y="177.5" width="120" height="95" as="geometry" />
        </mxCell>
        <mxCell id="vmad4Tgxf-zBpkZuK3b--19" style="edgeStyle=orthogonalEdgeStyle;rounded=0;orthogonalLoop=1;jettySize=auto;html=1;exitX=0.5;exitY=1;exitDx=0;exitDy=0;entryX=0.5;entryY=0;entryDx=0;entryDy=0;" parent="1" source="vmad4Tgxf-zBpkZuK3b--10" target="vmad4Tgxf-zBpkZuK3b--18" edge="1">
          <mxGeometry relative="1" as="geometry" />
        </mxCell>
        <mxCell id="vmad4Tgxf-zBpkZuK3b--10" value="&lt;font face=&quot;Times New Roman&quot;&gt;Masukkan nama &amp;amp; nim anda !&lt;/font&gt;" style="shape=parallelogram;perimeter=parallelogramPerimeter;whiteSpace=wrap;html=1;fixedSize=1;fillColor=#a0522d;fontColor=#ffffff;strokeColor=#6D1F00;" parent="1" vertex="1">
          <mxGeometry x="62" y="272.5" width="138" height="60" as="geometry" />
        </mxCell>
        <mxCell id="vmad4Tgxf-zBpkZuK3b--20" value="true" style="edgeStyle=orthogonalEdgeStyle;rounded=0;orthogonalLoop=1;jettySize=auto;html=1;exitX=1;exitY=0.5;exitDx=0;exitDy=0;entryX=0;entryY=1;entryDx=0;entryDy=0;" parent="1" source="vmad4Tgxf-zBpkZuK3b--18" target="vmad4Tgxf-zBpkZuK3b--7" edge="1">
          <mxGeometry relative="1" as="geometry">
            <mxPoint x="500" y="405" as="targetPoint" />
          </mxGeometry>
        </mxCell>
        <mxCell id="vmad4Tgxf-zBpkZuK3b--26" value="false" style="edgeStyle=orthogonalEdgeStyle;rounded=0;orthogonalLoop=1;jettySize=auto;html=1;exitX=0.5;exitY=1;exitDx=0;exitDy=0;entryX=0.5;entryY=0;entryDx=0;entryDy=0;" parent="1" source="vmad4Tgxf-zBpkZuK3b--18" target="vmad4Tgxf-zBpkZuK3b--25" edge="1">
          <mxGeometry relative="1" as="geometry" />
        </mxCell>
        <mxCell id="vmad4Tgxf-zBpkZuK3b--18" value="&lt;font face=&quot;Times New Roman&quot;&gt;nama == Nuril Akmal &amp;amp; nim = 2509106074&lt;/font&gt;" style="rhombus;whiteSpace=wrap;html=1;fillColor=#a20025;fontColor=#ffffff;strokeColor=#6F0000;" parent="1" vertex="1">
          <mxGeometry x="59" y="360" width="141" height="110" as="geometry" />
        </mxCell>
        <mxCell id="vmad4Tgxf-zBpkZuK3b--28" style="edgeStyle=orthogonalEdgeStyle;rounded=0;orthogonalLoop=1;jettySize=auto;html=1;exitX=0.5;exitY=1;exitDx=0;exitDy=0;entryX=0;entryY=0.5;entryDx=0;entryDy=0;" parent="1" source="vmad4Tgxf-zBpkZuK3b--25" target="vmad4Tgxf-zBpkZuK3b--27" edge="1">
          <mxGeometry relative="1" as="geometry" />
        </mxCell>
        <mxCell id="vmad4Tgxf-zBpkZuK3b--25" value="&lt;font face=&quot;Times New Roman&quot;&gt;Percobaan = percobaan +1&lt;/font&gt;" style="rounded=0;whiteSpace=wrap;html=1;fillColor=#0050ef;fontColor=#ffffff;strokeColor=#001DBC;" parent="1" vertex="1">
          <mxGeometry x="63" y="490" width="120" height="60" as="geometry" />
        </mxCell>
        <mxCell id="vmad4Tgxf-zBpkZuK3b--30" value="true" style="edgeStyle=orthogonalEdgeStyle;rounded=0;orthogonalLoop=1;jettySize=auto;html=1;exitX=1;exitY=0.5;exitDx=0;exitDy=0;entryX=1;entryY=0.5;entryDx=0;entryDy=0;" parent="1" source="vmad4Tgxf-zBpkZuK3b--27" target="vmad4Tgxf-zBpkZuK3b--9" edge="1">
          <mxGeometry relative="1" as="geometry" />
        </mxCell>
        <mxCell id="vmad4Tgxf-zBpkZuK3b--83" value="false" style="edgeStyle=orthogonalEdgeStyle;rounded=0;orthogonalLoop=1;jettySize=auto;html=1;exitX=0.5;exitY=1;exitDx=0;exitDy=0;entryX=0;entryY=0.5;entryDx=0;entryDy=0;" parent="1" source="vmad4Tgxf-zBpkZuK3b--27" target="vmad4Tgxf-zBpkZuK3b--86" edge="1">
          <mxGeometry relative="1" as="geometry">
            <mxPoint x="199.9999999999999" y="720" as="targetPoint" />
          </mxGeometry>
        </mxCell>
        <mxCell id="vmad4Tgxf-zBpkZuK3b--27" value="Sisa percobaan &amp;gt; 0?" style="rhombus;whiteSpace=wrap;html=1;fillColor=#a20025;fontColor=#ffffff;strokeColor=#6F0000;" parent="1" vertex="1">
          <mxGeometry x="160" y="580" width="80" height="80" as="geometry" />
        </mxCell>
        <mxCell id="vmad4Tgxf-zBpkZuK3b--34" style="edgeStyle=orthogonalEdgeStyle;rounded=0;orthogonalLoop=1;jettySize=auto;html=1;exitX=0.5;exitY=1;exitDx=0;exitDy=0;" parent="1" source="vmad4Tgxf-zBpkZuK3b--31" target="vmad4Tgxf-zBpkZuK3b--32" edge="1">
          <mxGeometry relative="1" as="geometry" />
        </mxCell>
        <mxCell id="vmad4Tgxf-zBpkZuK3b--31" value="Masuk ke Menu" style="shape=parallelogram;perimeter=parallelogramPerimeter;whiteSpace=wrap;html=1;fixedSize=1;fillColor=#a0522d;fontColor=#ffffff;strokeColor=#6D1F00;" parent="1" vertex="1">
          <mxGeometry x="500" y="280" width="120" height="60" as="geometry" />
        </mxCell>
        <mxCell id="vmad4Tgxf-zBpkZuK3b--37" style="edgeStyle=orthogonalEdgeStyle;rounded=0;orthogonalLoop=1;jettySize=auto;html=1;exitX=0.5;exitY=1;exitDx=0;exitDy=0;entryX=0.5;entryY=0;entryDx=0;entryDy=0;" parent="1" source="vmad4Tgxf-zBpkZuK3b--32" target="vmad4Tgxf-zBpkZuK3b--36" edge="1">
          <mxGeometry relative="1" as="geometry" />
        </mxCell>
        <mxCell id="vmad4Tgxf-zBpkZuK3b--32" value="1. Reguler 50K&lt;div&gt;2. VIP 100K&lt;/div&gt;&lt;div&gt;3. VVIP 150 K&lt;/div&gt;&lt;div&gt;4. Keluar&lt;/div&gt;" style="shape=parallelogram;perimeter=parallelogramPerimeter;whiteSpace=wrap;html=1;fixedSize=1;fillColor=#a0522d;fontColor=#ffffff;strokeColor=#6D1F00;" parent="1" vertex="1">
          <mxGeometry x="500" y="380" width="120" height="60" as="geometry" />
        </mxCell>
        <mxCell id="vmad4Tgxf-zBpkZuK3b--39" style="edgeStyle=orthogonalEdgeStyle;rounded=0;orthogonalLoop=1;jettySize=auto;html=1;exitX=0.5;exitY=1;exitDx=0;exitDy=0;entryX=0.5;entryY=0;entryDx=0;entryDy=0;" parent="1" source="vmad4Tgxf-zBpkZuK3b--36" target="vmad4Tgxf-zBpkZuK3b--38" edge="1">
          <mxGeometry relative="1" as="geometry" />
        </mxCell>
        <mxCell id="vmad4Tgxf-zBpkZuK3b--36" value="Pilih jenis tiket yang anda beli (1/2/3/4)?" style="shape=parallelogram;perimeter=parallelogramPerimeter;whiteSpace=wrap;html=1;fixedSize=1;fillColor=#a0522d;fontColor=#ffffff;strokeColor=#6D1F00;" parent="1" vertex="1">
          <mxGeometry x="377" y="490" width="120" height="60" as="geometry" />
        </mxCell>
        <mxCell id="vmad4Tgxf-zBpkZuK3b--43" value="false" style="edgeStyle=orthogonalEdgeStyle;rounded=0;orthogonalLoop=1;jettySize=auto;html=1;exitX=0.5;exitY=1;exitDx=0;exitDy=0;entryX=0;entryY=0.5;entryDx=0;entryDy=0;" parent="1" source="vmad4Tgxf-zBpkZuK3b--38" target="vmad4Tgxf-zBpkZuK3b--41" edge="1">
          <mxGeometry relative="1" as="geometry" />
        </mxCell>
        <mxCell id="vmad4Tgxf-zBpkZuK3b--38" value="Pilihan 4 Keluar ?" style="rhombus;whiteSpace=wrap;html=1;fillColor=#a20025;fontColor=#ffffff;strokeColor=#6F0000;" parent="1" vertex="1">
          <mxGeometry x="397" y="580" width="80" height="80" as="geometry" />
        </mxCell>
        <mxCell id="vmad4Tgxf-zBpkZuK3b--44" value="false" style="edgeStyle=orthogonalEdgeStyle;rounded=0;orthogonalLoop=1;jettySize=auto;html=1;exitX=1;exitY=0.5;exitDx=0;exitDy=0;entryX=1;entryY=1;entryDx=0;entryDy=0;" parent="1" source="vmad4Tgxf-zBpkZuK3b--41" target="vmad4Tgxf-zBpkZuK3b--32" edge="1">
          <mxGeometry relative="1" as="geometry" />
        </mxCell>
        <mxCell id="vmad4Tgxf-zBpkZuK3b--46" value="true" style="edgeStyle=orthogonalEdgeStyle;rounded=0;orthogonalLoop=1;jettySize=auto;html=1;exitX=0.5;exitY=1;exitDx=0;exitDy=0;entryX=0.5;entryY=0;entryDx=0;entryDy=0;" parent="1" source="vmad4Tgxf-zBpkZuK3b--41" target="vmad4Tgxf-zBpkZuK3b--45" edge="1">
          <mxGeometry relative="1" as="geometry" />
        </mxCell>
        <mxCell id="vmad4Tgxf-zBpkZuK3b--41" value="Pilihan 1 atau 2 atau 3?" style="rhombus;whiteSpace=wrap;html=1;fillColor=#a20025;fontColor=#ffffff;strokeColor=#6F0000;" parent="1" vertex="1">
          <mxGeometry x="485" y="640" width="80" height="80" as="geometry" />
        </mxCell>
        <mxCell id="vmad4Tgxf-zBpkZuK3b--49" style="edgeStyle=orthogonalEdgeStyle;rounded=0;orthogonalLoop=1;jettySize=auto;html=1;exitX=0.5;exitY=1;exitDx=0;exitDy=0;entryX=0.5;entryY=0;entryDx=0;entryDy=0;" parent="1" source="vmad4Tgxf-zBpkZuK3b--45" target="vmad4Tgxf-zBpkZuK3b--47" edge="1">
          <mxGeometry relative="1" as="geometry" />
        </mxCell>
        <mxCell id="vmad4Tgxf-zBpkZuK3b--45" value="set jenis tiket dan harga" style="rounded=0;whiteSpace=wrap;html=1;fillColor=#0050ef;fontColor=#ffffff;strokeColor=#001DBC;" parent="1" vertex="1">
          <mxGeometry x="464" y="740" width="120" height="60" as="geometry" />
        </mxCell>
        <mxCell id="vmad4Tgxf-zBpkZuK3b--53" style="edgeStyle=orthogonalEdgeStyle;rounded=0;orthogonalLoop=1;jettySize=auto;html=1;exitX=0.5;exitY=1;exitDx=0;exitDy=0;entryX=0.5;entryY=0;entryDx=0;entryDy=0;" parent="1" source="vmad4Tgxf-zBpkZuK3b--47" target="vmad4Tgxf-zBpkZuK3b--50" edge="1">
          <mxGeometry relative="1" as="geometry" />
        </mxCell>
        <mxCell id="vmad4Tgxf-zBpkZuK3b--47" value="Berapa tiket yang mau anda beli?" style="shape=parallelogram;perimeter=parallelogramPerimeter;whiteSpace=wrap;html=1;fixedSize=1;fillColor=#a0522d;fontColor=#ffffff;strokeColor=#6D1F00;" parent="1" vertex="1">
          <mxGeometry x="465" y="830" width="120" height="60" as="geometry" />
        </mxCell>
        <mxCell id="vmad4Tgxf-zBpkZuK3b--51" value="false" style="edgeStyle=orthogonalEdgeStyle;rounded=0;orthogonalLoop=1;jettySize=auto;html=1;exitX=1;exitY=0.5;exitDx=0;exitDy=0;entryX=1;entryY=0.5;entryDx=0;entryDy=0;" parent="1" source="vmad4Tgxf-zBpkZuK3b--50" target="vmad4Tgxf-zBpkZuK3b--32" edge="1">
          <mxGeometry relative="1" as="geometry">
            <mxPoint x="630" y="410" as="targetPoint" />
          </mxGeometry>
        </mxCell>
        <mxCell id="vmad4Tgxf-zBpkZuK3b--50" value="Jumlah angka dan lebih dari 0?" style="rhombus;whiteSpace=wrap;html=1;fillColor=#a20025;fontColor=#ffffff;strokeColor=#6F0000;" parent="1" vertex="1">
          <mxGeometry x="484" y="910" width="80" height="80" as="geometry" />
        </mxCell>
        <mxCell id="vmad4Tgxf-zBpkZuK3b--57" style="edgeStyle=orthogonalEdgeStyle;rounded=0;orthogonalLoop=1;jettySize=auto;html=1;exitX=0.5;exitY=1;exitDx=0;exitDy=0;entryX=0.5;entryY=0;entryDx=0;entryDy=0;" parent="1" source="vmad4Tgxf-zBpkZuK3b--54" target="vmad4Tgxf-zBpkZuK3b--56" edge="1">
          <mxGeometry relative="1" as="geometry" />
        </mxCell>
        <mxCell id="vmad4Tgxf-zBpkZuK3b--54" value="subtotal&amp;nbsp; = 0" style="rounded=0;whiteSpace=wrap;html=1;fillColor=#0050ef;fontColor=#ffffff;strokeColor=#001DBC;" parent="1" vertex="1">
          <mxGeometry x="470" y="1020" width="120" height="60" as="geometry" />
        </mxCell>
        <mxCell id="vmad4Tgxf-zBpkZuK3b--55" value="false" style="edgeStyle=orthogonalEdgeStyle;rounded=0;orthogonalLoop=1;jettySize=auto;html=1;exitX=0.5;exitY=1;exitDx=0;exitDy=0;entryX=0.447;entryY=-0.02;entryDx=0;entryDy=0;entryPerimeter=0;" parent="1" source="vmad4Tgxf-zBpkZuK3b--50" target="vmad4Tgxf-zBpkZuK3b--54" edge="1">
          <mxGeometry relative="1" as="geometry" />
        </mxCell>
        <mxCell id="vmad4Tgxf-zBpkZuK3b--62" style="edgeStyle=orthogonalEdgeStyle;rounded=0;orthogonalLoop=1;jettySize=auto;html=1;exitX=0.5;exitY=1;exitDx=0;exitDy=0;entryX=0.5;entryY=0;entryDx=0;entryDy=0;" parent="1" source="vmad4Tgxf-zBpkZuK3b--56" target="vmad4Tgxf-zBpkZuK3b--58" edge="1">
          <mxGeometry relative="1" as="geometry" />
        </mxCell>
        <mxCell id="vmad4Tgxf-zBpkZuK3b--56" value="Ulang sebanyak jumlah: total = subtotal + harga" style="whiteSpace=wrap;strokeWidth=2;fillColor=#0050ef;fontColor=#ffffff;strokeColor=#001DBC;" parent="1" vertex="1">
          <mxGeometry x="400" y="1110" width="260" height="78" as="geometry" />
        </mxCell>
        <mxCell id="vmad4Tgxf-zBpkZuK3b--70" value="false" style="edgeStyle=orthogonalEdgeStyle;rounded=0;orthogonalLoop=1;jettySize=auto;html=1;exitX=1;exitY=1;exitDx=0;exitDy=0;" parent="1" source="vmad4Tgxf-zBpkZuK3b--58" target="vmad4Tgxf-zBpkZuK3b--59" edge="1">
          <mxGeometry relative="1" as="geometry" />
        </mxCell>
        <mxCell id="Y8Fo8XXSH3Xda8Cn4PU3-10" value="true" style="edgeStyle=orthogonalEdgeStyle;rounded=0;orthogonalLoop=1;jettySize=auto;html=1;exitX=0;exitY=0.5;exitDx=0;exitDy=0;entryX=0.5;entryY=0;entryDx=0;entryDy=0;" edge="1" parent="1" source="vmad4Tgxf-zBpkZuK3b--58" target="Y8Fo8XXSH3Xda8Cn4PU3-6">
          <mxGeometry relative="1" as="geometry">
            <mxPoint x="110" y="1395.3333333333335" as="targetPoint" />
          </mxGeometry>
        </mxCell>
        <mxCell id="vmad4Tgxf-zBpkZuK3b--58" value="Subtotal 300000 atau lebih?" style="rhombus;strokeWidth=2;whiteSpace=wrap;fillColor=#a20025;fontColor=#ffffff;strokeColor=#6F0000;" parent="1" vertex="1">
          <mxGeometry x="404" y="1270" width="252" height="252" as="geometry" />
        </mxCell>
        <mxCell id="vmad4Tgxf-zBpkZuK3b--71" value="false" style="edgeStyle=orthogonalEdgeStyle;rounded=0;orthogonalLoop=1;jettySize=auto;html=1;exitX=1;exitY=0.5;exitDx=0;exitDy=0;entryX=1;entryY=0;entryDx=0;entryDy=0;" parent="1" source="vmad4Tgxf-zBpkZuK3b--59" target="vmad4Tgxf-zBpkZuK3b--60" edge="1">
          <mxGeometry relative="1" as="geometry" />
        </mxCell>
        <mxCell id="Y8Fo8XXSH3Xda8Cn4PU3-13" value="true" style="edgeStyle=orthogonalEdgeStyle;rounded=0;orthogonalLoop=1;jettySize=auto;html=1;exitX=0;exitY=0.5;exitDx=0;exitDy=0;entryX=0.5;entryY=0;entryDx=0;entryDy=0;" edge="1" parent="1" source="vmad4Tgxf-zBpkZuK3b--59" target="Y8Fo8XXSH3Xda8Cn4PU3-12">
          <mxGeometry relative="1" as="geometry">
            <mxPoint x="110" y="1660" as="targetPoint" />
          </mxGeometry>
        </mxCell>
        <mxCell id="vmad4Tgxf-zBpkZuK3b--59" value="Subtotal 200000 sampai 299999?" style="rhombus;strokeWidth=2;whiteSpace=wrap;fillColor=#a20025;fontColor=#ffffff;strokeColor=#6F0000;" parent="1" vertex="1">
          <mxGeometry x="450" y="1522" width="278" height="278" as="geometry" />
        </mxCell>
        <mxCell id="Y8Fo8XXSH3Xda8Cn4PU3-15" value="true" style="edgeStyle=orthogonalEdgeStyle;rounded=0;orthogonalLoop=1;jettySize=auto;html=1;exitX=0;exitY=0.5;exitDx=0;exitDy=0;entryX=0.5;entryY=0;entryDx=0;entryDy=0;" edge="1" parent="1" source="vmad4Tgxf-zBpkZuK3b--60" target="Y8Fo8XXSH3Xda8Cn4PU3-14">
          <mxGeometry relative="1" as="geometry">
            <mxPoint x="110" y="1938.666666666667" as="targetPoint" />
          </mxGeometry>
        </mxCell>
        <mxCell id="Y8Fo8XXSH3Xda8Cn4PU3-21" style="edgeStyle=orthogonalEdgeStyle;rounded=0;orthogonalLoop=1;jettySize=auto;html=1;exitX=0.5;exitY=1;exitDx=0;exitDy=0;" edge="1" parent="1" source="vmad4Tgxf-zBpkZuK3b--60" target="Y8Fo8XXSH3Xda8Cn4PU3-16">
          <mxGeometry relative="1" as="geometry">
            <mxPoint x="670" y="2160" as="targetPoint" />
          </mxGeometry>
        </mxCell>
        <mxCell id="Y8Fo8XXSH3Xda8Cn4PU3-23" value="false" style="edgeLabel;html=1;align=center;verticalAlign=middle;resizable=0;points=[];" vertex="1" connectable="0" parent="Y8Fo8XXSH3Xda8Cn4PU3-21">
          <mxGeometry x="0.2448" relative="1" as="geometry">
            <mxPoint as="offset" />
          </mxGeometry>
        </mxCell>
        <mxCell id="vmad4Tgxf-zBpkZuK3b--60" value="Subtotal 150000 sampai 199999?" style="rhombus;strokeWidth=2;whiteSpace=wrap;fillColor=#a20025;fontColor=#ffffff;strokeColor=#6F0000;" parent="1" vertex="1">
          <mxGeometry x="540" y="1800" width="278" height="278" as="geometry" />
        </mxCell>
        <mxCell id="vmad4Tgxf-zBpkZuK3b--75" style="edgeStyle=orthogonalEdgeStyle;rounded=0;orthogonalLoop=1;jettySize=auto;html=1;exitX=1;exitY=0.5;exitDx=0;exitDy=0;" parent="1" source="Y8Fo8XXSH3Xda8Cn4PU3-6" target="vmad4Tgxf-zBpkZuK3b--74" edge="1">
          <mxGeometry relative="1" as="geometry">
            <mxPoint x="275" y="1483.0000000000005" as="sourcePoint" />
            <Array as="points">
              <mxPoint x="447" y="1465" />
            </Array>
          </mxGeometry>
        </mxCell>
        <mxCell id="vmad4Tgxf-zBpkZuK3b--76" style="edgeStyle=orthogonalEdgeStyle;rounded=0;orthogonalLoop=1;jettySize=auto;html=1;exitX=0.967;exitY=0.407;exitDx=0;exitDy=0;entryX=0.25;entryY=0;entryDx=0;entryDy=0;exitPerimeter=0;" parent="1" source="Y8Fo8XXSH3Xda8Cn4PU3-12" target="vmad4Tgxf-zBpkZuK3b--74" edge="1">
          <mxGeometry relative="1" as="geometry">
            <mxPoint x="275" y="1729" as="sourcePoint" />
          </mxGeometry>
        </mxCell>
        <mxCell id="vmad4Tgxf-zBpkZuK3b--78" style="edgeStyle=orthogonalEdgeStyle;rounded=0;orthogonalLoop=1;jettySize=auto;html=1;exitX=1;exitY=0.5;exitDx=0;exitDy=0;entryX=0;entryY=0;entryDx=0;entryDy=0;" parent="1" source="Y8Fo8XXSH3Xda8Cn4PU3-16" target="vmad4Tgxf-zBpkZuK3b--74" edge="1">
          <mxGeometry relative="1" as="geometry">
            <mxPoint x="275" y="2149" as="sourcePoint" />
          </mxGeometry>
        </mxCell>
        <mxCell id="vmad4Tgxf-zBpkZuK3b--74" value="Total = Subtotal - Diskon" style="whiteSpace=wrap;strokeWidth=2;fillColor=#0050ef;fontColor=#ffffff;strokeColor=#001DBC;" parent="1" vertex="1">
          <mxGeometry x="329" y="2270" width="235" height="54" as="geometry" />
        </mxCell>
        <mxCell id="vmad4Tgxf-zBpkZuK3b--77" style="edgeStyle=orthogonalEdgeStyle;rounded=0;orthogonalLoop=1;jettySize=auto;html=1;exitX=1;exitY=0.25;exitDx=0;exitDy=0;entryX=0.132;entryY=0;entryDx=0;entryDy=0;entryPerimeter=0;" parent="1" source="Y8Fo8XXSH3Xda8Cn4PU3-14" target="vmad4Tgxf-zBpkZuK3b--74" edge="1">
          <mxGeometry relative="1" as="geometry">
            <mxPoint x="260" y="2009" as="sourcePoint" />
            <Array as="points">
              <mxPoint x="225" y="2010" />
              <mxPoint x="360" y="2010" />
            </Array>
          </mxGeometry>
        </mxCell>
        <mxCell id="vmad4Tgxf-zBpkZuK3b--81" style="edgeStyle=orthogonalEdgeStyle;rounded=0;orthogonalLoop=1;jettySize=auto;html=1;exitX=1;exitY=1;exitDx=0;exitDy=0;entryX=1;entryY=0.25;entryDx=0;entryDy=0;" parent="1" source="vmad4Tgxf-zBpkZuK3b--103" target="vmad4Tgxf-zBpkZuK3b--32" edge="1">
          <mxGeometry relative="1" as="geometry">
            <mxPoint x="760" y="420" as="targetPoint" />
            <mxPoint x="594" y="2431" as="sourcePoint" />
            <Array as="points">
              <mxPoint x="571" y="2431" />
              <mxPoint x="840" y="2431" />
              <mxPoint x="840" y="396" />
            </Array>
          </mxGeometry>
        </mxCell>
        <mxCell id="vmad4Tgxf-zBpkZuK3b--80" style="edgeStyle=orthogonalEdgeStyle;rounded=0;orthogonalLoop=1;jettySize=auto;html=1;exitX=0.5;exitY=1;exitDx=0;exitDy=0;entryX=0.433;entryY=0;entryDx=0;entryDy=0;entryPerimeter=0;" parent="1" source="vmad4Tgxf-zBpkZuK3b--74" edge="1">
          <mxGeometry relative="1" as="geometry">
            <mxPoint x="446.5799999999999" y="2380" as="targetPoint" />
          </mxGeometry>
        </mxCell>
        <mxCell id="vmad4Tgxf-zBpkZuK3b--85" value="selesai" style="ellipse;whiteSpace=wrap;html=1;fillColor=#ffcd28;gradientColor=#ffa500;strokeColor=#d79b00;" parent="1" vertex="1">
          <mxGeometry x="365" y="2510" width="120" height="80" as="geometry" />
        </mxCell>
        <mxCell id="vmad4Tgxf-zBpkZuK3b--86" value="Selesai, akses ditolak" style="ellipse;whiteSpace=wrap;html=1;fillColor=#ffcd28;gradientColor=#ffa500;strokeColor=#d79b00;" parent="1" vertex="1">
          <mxGeometry x="365" y="880" width="120" height="80" as="geometry" />
        </mxCell>
        <mxCell id="vmad4Tgxf-zBpkZuK3b--93" value="" style="endArrow=classic;html=1;rounded=0;" parent="1" edge="1">
          <mxGeometry width="50" height="50" relative="1" as="geometry">
            <mxPoint x="270" y="100" as="sourcePoint" />
            <mxPoint x="340" y="100" as="targetPoint" />
          </mxGeometry>
        </mxCell>
        <mxCell id="vmad4Tgxf-zBpkZuK3b--97" value="" style="endArrow=classic;html=1;rounded=0;" parent="1" edge="1">
          <mxGeometry width="50" height="50" relative="1" as="geometry">
            <mxPoint x="9" y="277" as="sourcePoint" />
            <mxPoint x="79" y="277" as="targetPoint" />
          </mxGeometry>
        </mxCell>
        <mxCell id="vmad4Tgxf-zBpkZuK3b--98" value="" style="endArrow=classic;html=1;rounded=0;" parent="1" edge="1">
          <mxGeometry width="50" height="50" relative="1" as="geometry">
            <mxPoint x="604" y="240" as="sourcePoint" />
            <mxPoint x="674" y="240" as="targetPoint" />
          </mxGeometry>
        </mxCell>
        <mxCell id="vmad4Tgxf-zBpkZuK3b--99" value="" style="endArrow=classic;html=1;rounded=0;" parent="1" edge="1">
          <mxGeometry width="50" height="50" relative="1" as="geometry">
            <mxPoint x="604" y="330" as="sourcePoint" />
            <mxPoint x="674" y="330" as="targetPoint" />
          </mxGeometry>
        </mxCell>
        <mxCell id="vmad4Tgxf-zBpkZuK3b--100" value="" style="endArrow=classic;html=1;rounded=0;" parent="1" edge="1">
          <mxGeometry width="50" height="50" relative="1" as="geometry">
            <mxPoint x="604" y="432" as="sourcePoint" />
            <mxPoint x="674" y="432" as="targetPoint" />
          </mxGeometry>
        </mxCell>
        <mxCell id="vmad4Tgxf-zBpkZuK3b--101" value="" style="endArrow=classic;html=1;rounded=0;" parent="1" edge="1">
          <mxGeometry width="50" height="50" relative="1" as="geometry">
            <mxPoint x="324" y="494" as="sourcePoint" />
            <mxPoint x="394" y="494" as="targetPoint" />
          </mxGeometry>
        </mxCell>
        <mxCell id="vmad4Tgxf-zBpkZuK3b--102" value="" style="endArrow=classic;html=1;rounded=0;" parent="1" edge="1">
          <mxGeometry width="50" height="50" relative="1" as="geometry">
            <mxPoint x="411" y="838" as="sourcePoint" />
            <mxPoint x="481" y="838" as="targetPoint" />
          </mxGeometry>
        </mxCell>
        <mxCell id="vmad4Tgxf-zBpkZuK3b--104" style="edgeStyle=orthogonalEdgeStyle;rounded=0;orthogonalLoop=1;jettySize=auto;html=1;exitX=0.5;exitY=1;exitDx=0;exitDy=0;entryX=0.5;entryY=0;entryDx=0;entryDy=0;" parent="1" source="vmad4Tgxf-zBpkZuK3b--103" target="vmad4Tgxf-zBpkZuK3b--85" edge="1">
          <mxGeometry relative="1" as="geometry" />
        </mxCell>
        <mxCell id="vmad4Tgxf-zBpkZuK3b--103" value="&lt;span style=&quot;background-color: light-dark(#ffffff, var(--ge-dark-color, #121212));&quot;&gt;&lt;font&gt;&lt;br&gt;&lt;/font&gt;&lt;/span&gt;&lt;font&gt;&lt;span style=&quot;font-family: Helvetica; font-size: 12px; font-variant-ligatures: normal; font-variant-caps: normal; letter-spacing: normal; orphans: 2; text-align: center; text-indent: 0px; text-transform: none; widows: 2; word-spacing: 0px; -webkit-text-stroke-width: 0px; white-space: normal; text-decoration-thickness: initial; text-decoration-style: initial; text-decoration-color: initial; float: none; display: inline !important;&quot;&gt;&lt;font style=&quot;&quot;&gt;Tampilkan: jenis, jumlah, subtotal, diskon atau bonus, total&lt;/font&gt;&lt;/span&gt;&lt;br&gt;&lt;/font&gt;" style="shape=parallelogram;perimeter=parallelogramPerimeter;whiteSpace=wrap;html=1;fixedSize=1;fillColor=#a0522d;fontColor=#ffffff;strokeColor=#6D1F00;" parent="1" vertex="1">
          <mxGeometry x="310" y="2380" width="280" height="60" as="geometry" />
        </mxCell>
        <mxCell id="vmad4Tgxf-zBpkZuK3b--106" value="" style="endArrow=classic;html=1;rounded=0;" parent="1" edge="1">
          <mxGeometry width="50" height="50" relative="1" as="geometry">
            <mxPoint x="575" y="2419" as="sourcePoint" />
            <mxPoint x="645" y="2419" as="targetPoint" />
          </mxGeometry>
        </mxCell>
        <mxCell id="vmad4Tgxf-zBpkZuK3b--107" value="true" style="edgeStyle=orthogonalEdgeStyle;rounded=0;orthogonalLoop=1;jettySize=auto;html=1;exitX=0;exitY=0.5;exitDx=0;exitDy=0;entryX=0.092;entryY=0.2;entryDx=0;entryDy=0;entryPerimeter=0;" parent="1" source="vmad4Tgxf-zBpkZuK3b--38" target="vmad4Tgxf-zBpkZuK3b--86" edge="1">
          <mxGeometry relative="1" as="geometry" />
        </mxCell>
        <mxCell id="Y8Fo8XXSH3Xda8Cn4PU3-6" value="&lt;span style=&quot;color: rgb(255, 255, 255); font-family: Helvetica; font-size: 12px; font-style: normal; font-variant-ligatures: normal; font-variant-caps: normal; font-weight: 400; letter-spacing: normal; orphans: 2; text-align: center; text-indent: 0px; text-transform: none; widows: 2; word-spacing: 0px; -webkit-text-stroke-width: 0px; white-space: normal; text-decoration-thickness: initial; text-decoration-style: initial; text-decoration-color: initial; float: none; display: inline !important;&quot;&gt;Diskon 12 persen dari Subtotal&lt;/span&gt;" style="shape=parallelogram;perimeter=parallelogramPerimeter;whiteSpace=wrap;html=1;fixedSize=1;fillColor=#a0522d;fontColor=#ffffff;strokeColor=#6D1F00;" vertex="1" parent="1">
          <mxGeometry x="10" y="1420" width="205" height="90" as="geometry" />
        </mxCell>
        <mxCell id="Y8Fo8XXSH3Xda8Cn4PU3-12" value="Diskon 8 persen dari Subtotal" style="shape=parallelogram;perimeter=parallelogramPerimeter;whiteSpace=wrap;html=1;fixedSize=1;fillColor=#a0522d;fontColor=#ffffff;strokeColor=#6D1F00;" vertex="1" parent="1">
          <mxGeometry x="4" y="1683" width="210" height="100" as="geometry" />
        </mxCell>
        <mxCell id="Y8Fo8XXSH3Xda8Cn4PU3-14" value="Bonus Poster Eksklusif - Diskon 0" style="shape=parallelogram;perimeter=parallelogramPerimeter;whiteSpace=wrap;html=1;fixedSize=1;fillColor=#a0522d;fontColor=#ffffff;strokeColor=#6D1F00;" vertex="1" parent="1">
          <mxGeometry y="1980" width="230" height="90" as="geometry" />
        </mxCell>
        <mxCell id="Y8Fo8XXSH3Xda8Cn4PU3-16" value="Tidak ada diskon atau bonus" style="shape=parallelogram;perimeter=parallelogramPerimeter;whiteSpace=wrap;html=1;fixedSize=1;fillColor=#a0522d;fontColor=#ffffff;strokeColor=#6D1F00;" vertex="1" parent="1">
          <mxGeometry y="2120" width="220" height="80" as="geometry" />
        </mxCell>
        <mxCell id="Y8Fo8XXSH3Xda8Cn4PU3-24" value="" style="endArrow=classic;html=1;rounded=0;" edge="1" parent="1">
          <mxGeometry width="50" height="50" relative="1" as="geometry">
            <mxPoint x="196" y="1500" as="sourcePoint" />
            <mxPoint x="266" y="1500" as="targetPoint" />
          </mxGeometry>
        </mxCell>
        <mxCell id="Y8Fo8XXSH3Xda8Cn4PU3-25" value="" style="endArrow=classic;html=1;rounded=0;" edge="1" parent="1">
          <mxGeometry width="50" height="50" relative="1" as="geometry">
            <mxPoint x="199" y="1766" as="sourcePoint" />
            <mxPoint x="269" y="1766" as="targetPoint" />
          </mxGeometry>
        </mxCell>
        <mxCell id="Y8Fo8XXSH3Xda8Cn4PU3-26" value="" style="endArrow=classic;html=1;rounded=0;" edge="1" parent="1">
          <mxGeometry width="50" height="50" relative="1" as="geometry">
            <mxPoint x="213" y="2055" as="sourcePoint" />
            <mxPoint x="283" y="2055" as="targetPoint" />
          </mxGeometry>
        </mxCell>
        <mxCell id="Y8Fo8XXSH3Xda8Cn4PU3-27" value="" style="endArrow=classic;html=1;rounded=0;" edge="1" parent="1">
          <mxGeometry width="50" height="50" relative="1" as="geometry">
            <mxPoint x="202" y="2189" as="sourcePoint" />
            <mxPoint x="272" y="2189" as="targetPoint" />
          </mxGeometry>
        </mxCell>
      </root>
    </mxGraphModel>
  </diagram>
</mxfile>
